<?xml version="1.0" encoding="UTF-8"?>
<svg enable-background="new 0 0 32 32" version="1.1" viewBox="0 0 32 32" xml:space="preserve" xmlns="http://www.w3.org/2000/svg">
<style type="text/css">
	.st0{fill:#00ffff;}
	.st1{fill:#00ff00;}
	.st2{fill:#FFFFFF;}
	.st3{fill:#ffff00;}
</style>
<rect class="st0" x="1" y="5" width="30" height="22"/>
<polygon class="st1" points="30 22 30 26 2 26 2 22 4 22 4 20 8 20 8 18 12 18 12 20 28 20 28 22"/>
<path d="M0,4v24h32V4H0z M30,26H2V6h14v2h-2v2h-2v2h-2v4h2v4h10v-4h2v-4h-2v-2h-2V8h-2V6h12V26z"/>
<polygon class="st2" points="20 14 20 16 18 16 18 20 14 20 14 18 16 18 16 16 14 16 14 14"/>
<polygon class="st3" points="8 8 8 10 10 10 10 12 8 12 8 14 6 14 6 12 4 12 4 8"/>
<rect class="st3" x="2" y="12" width="2" height="2"/>
<rect class="st3" x="8" y="6" width="2" height="2"/>
<rect class="st3" x="2" y="6" width="2" height="2"/>
</svg>
